%TF.GenerationSoftware,KiCad,Pcbnew,9.0.3*%
%TF.CreationDate,2025-09-16T13:15:06-03:00*%
%TF.ProjectId,ProjetoSeguidorDeLinhaV2,50726f6a-6574-46f5-9365-677569646f72,rev?*%
%TF.SameCoordinates,Original*%
%TF.FileFunction,Copper,L2,Bot*%
%TF.FilePolarity,Positive*%
%FSLAX46Y46*%
G04 Gerber Fmt 4.6, Leading zero omitted, Abs format (unit mm)*
G04 Created by KiCad (PCBNEW 9.0.3) date 2025-09-16 13:15:06*
%MOMM*%
%LPD*%
G01*
G04 APERTURE LIST*
%TA.AperFunction,ComponentPad*%
%ADD10O,1.600000X1.600000*%
%TD*%
%TA.AperFunction,ComponentPad*%
%ADD11R,1.600000X1.600000*%
%TD*%
%TA.AperFunction,ComponentPad*%
%ADD12C,2.000000*%
%TD*%
%TA.AperFunction,ComponentPad*%
%ADD13O,1.700000X1.700000*%
%TD*%
%TA.AperFunction,ComponentPad*%
%ADD14R,1.700000X1.700000*%
%TD*%
%TA.AperFunction,ComponentPad*%
%ADD15C,2.184400*%
%TD*%
%TA.AperFunction,Conductor*%
%ADD16C,1.200000*%
%TD*%
%TA.AperFunction,Conductor*%
%ADD17C,1.500000*%
%TD*%
G04 APERTURE END LIST*
D10*
%TO.P,A1,30,VIN*%
%TO.N,Net-(A1-VIN)*%
X164050000Y-81770000D03*
%TO.P,A1,29,GND*%
%TO.N,GND*%
X166590000Y-81770000D03*
%TO.P,A1,26,A7*%
%TO.N,Net-(A1-A7)*%
X174210000Y-81770000D03*
%TO.P,A1,25,A6*%
%TO.N,Net-(A1-A6)*%
X176750000Y-81770000D03*
%TO.P,A1,24,A5*%
%TO.N,Net-(A1-A5)*%
X179290000Y-81770000D03*
%TO.P,A1,23,A4*%
%TO.N,Net-(A1-A4)*%
X181830000Y-81770000D03*
%TO.P,A1,22,A3*%
%TO.N,Net-(A1-A3)*%
X184370000Y-81770000D03*
%TO.P,A1,21,A2*%
%TO.N,Net-(A1-A2)*%
X186910000Y-81770000D03*
%TO.P,A1,20,A1*%
%TO.N,Net-(A1-A1)*%
X189450000Y-81770000D03*
%TO.P,A1,19,A0*%
%TO.N,Net-(A1-A0)*%
X191990000Y-81770000D03*
%TO.P,A1,18,AREF*%
%TO.N,unconnected-(A1-AREF-Pad18)*%
X194530000Y-81770000D03*
%TO.P,A1,17,3V3*%
%TO.N,Net-(A1-3V3)*%
X197070000Y-81770000D03*
%TO.P,A1,16,D13*%
%TO.N,unconnected-(A1-D13-Pad16)*%
X199610000Y-81770000D03*
%TO.P,A1,15,D12*%
%TO.N,Net-(A1-D12)*%
X199610000Y-97010000D03*
%TO.P,A1,14,D11*%
%TO.N,Net-(A1-D11)*%
X197070000Y-97010000D03*
%TO.P,A1,13,D10*%
%TO.N,Net-(A1-D10)*%
X194530000Y-97010000D03*
%TO.P,A1,12,D9*%
%TO.N,Net-(A1-D9)*%
X191990000Y-97010000D03*
%TO.P,A1,11,D8*%
%TO.N,unconnected-(A1-D8-Pad11)*%
X189450000Y-97010000D03*
%TO.P,A1,10,D7*%
%TO.N,unconnected-(A1-D7-Pad10)*%
X186910000Y-97010000D03*
%TO.P,A1,9,D6*%
%TO.N,Net-(A1-D6)*%
X184370000Y-97010000D03*
%TO.P,A1,8,D5*%
%TO.N,Net-(A1-D5)*%
X181830000Y-97010000D03*
%TO.P,A1,7,D4*%
%TO.N,Net-(A1-D4)*%
X179290000Y-97010000D03*
%TO.P,A1,6,D3*%
%TO.N,unconnected-(A1-D3-Pad6)*%
X176750000Y-97010000D03*
%TO.P,A1,5,D2*%
%TO.N,unconnected-(A1-D2-Pad5)*%
X174210000Y-97010000D03*
%TO.P,A1,4,GND*%
%TO.N,GND*%
X171670000Y-97010000D03*
%TO.P,A1,3,~{RESET}*%
%TO.N,unconnected-(A1-~{RESET}-Pad3)*%
X169130000Y-97010000D03*
%TO.P,A1,2,D0/RX*%
%TO.N,unconnected-(A1-D0{slash}RX-Pad2)*%
X166590000Y-97010000D03*
D11*
%TO.P,A1,1,D1/TX*%
%TO.N,unconnected-(A1-D1{slash}TX-Pad1)*%
X164050000Y-97010000D03*
%TD*%
D12*
%TO.P,SW1,2,2*%
%TO.N,Net-(A1-D11)*%
X184500000Y-100870000D03*
X191000000Y-100870000D03*
%TO.P,SW1,1,1*%
%TO.N,GND*%
X184500000Y-105370000D03*
X191000000Y-105370000D03*
%TD*%
D13*
%TO.P,J5,2,Pin_2*%
%TO.N,Net-(J5-Pin_2)*%
X203800000Y-109465000D03*
D14*
%TO.P,J5,1,Pin_1*%
%TO.N,Net-(J5-Pin_1)*%
X203800000Y-106925000D03*
%TD*%
D13*
%TO.P,J4,2,Pin_2*%
%TO.N,Net-(J4-Pin_2)*%
X137010000Y-109585000D03*
D14*
%TO.P,J4,1,Pin_1*%
%TO.N,Net-(J4-Pin_1)*%
X137010000Y-107045000D03*
%TD*%
%TO.P,J3,1,Pin_1*%
%TO.N,Net-(A1-D12)*%
X200600000Y-69460000D03*
D13*
%TO.P,J3,2,Pin_2*%
%TO.N,GND*%
X200600000Y-72000000D03*
%TO.P,J3,3,Pin_3*%
%TO.N,Net-(A1-3V3)*%
X200600000Y-74540000D03*
%TD*%
D14*
%TO.P,U2,1,~{SLEEP}*%
%TO.N,unconnected-(U2-~{SLEEP}-Pad1)*%
X139303000Y-83474500D03*
D13*
%TO.P,U2,2,IN4*%
%TO.N,Net-(A1-D10)*%
X154303000Y-83445500D03*
%TO.P,U2,3,OUT1*%
%TO.N,Net-(J5-Pin_1)*%
X139303000Y-86014500D03*
%TO.P,U2,4,IN3*%
%TO.N,Net-(A1-D9)*%
X154303000Y-85985500D03*
%TO.P,U2,5,OUT2*%
%TO.N,Net-(J5-Pin_2)*%
X139303000Y-88554500D03*
%TO.P,U2,6,GND*%
%TO.N,GND*%
X154303000Y-88525500D03*
%TO.P,U2,7,OUT3*%
%TO.N,Net-(J4-Pin_1)*%
X139303000Y-91094500D03*
%TO.P,U2,8,VINT*%
%TO.N,Net-(A1-VIN)*%
X154303000Y-91065500D03*
%TO.P,U2,9,OUT4*%
%TO.N,Net-(J4-Pin_2)*%
X139303000Y-93634500D03*
%TO.P,U2,10,IN2*%
%TO.N,Net-(A1-D6)*%
X154303000Y-93605500D03*
%TO.P,U2,11,~{FAULT}*%
%TO.N,unconnected-(U2-~{FAULT}-Pad11)*%
X139303000Y-96174500D03*
%TO.P,U2,12,IN1*%
%TO.N,Net-(A1-D5)*%
X154303000Y-96145500D03*
%TD*%
D14*
%TO.P,J1,1,Pin_1*%
%TO.N,Net-(A1-VIN)*%
X157625000Y-101700000D03*
D13*
%TO.P,J1,2,Pin_2*%
%TO.N,GND*%
X160165000Y-101700000D03*
%TD*%
D14*
%TO.P,J2,1,Pin_1*%
%TO.N,Net-(A1-3V3)*%
X139200000Y-69475000D03*
D13*
%TO.P,J2,2,Pin_2*%
%TO.N,GND*%
X139200000Y-72015000D03*
%TO.P,J2,3,Pin_3*%
%TO.N,Net-(A1-D4)*%
X139200000Y-74555000D03*
%TD*%
D15*
%TO.P,U1,3V3,3V3*%
%TO.N,Net-(A1-3V3)*%
X167560000Y-69000000D03*
%TO.P,U1,GND,GND*%
%TO.N,GND*%
X192980000Y-69000000D03*
%TO.P,U1,LED1,LED1*%
%TO.N,Net-(A1-A0)*%
X187920000Y-69000000D03*
%TO.P,U1,LED2,LED2*%
%TO.N,Net-(A1-A1)*%
X185380000Y-69000000D03*
%TO.P,U1,LED3,LED3*%
%TO.N,Net-(A1-A2)*%
X182840000Y-69000000D03*
%TO.P,U1,LED4,LED4*%
%TO.N,Net-(A1-A3)*%
X180300000Y-69000000D03*
%TO.P,U1,LED5,LED5*%
%TO.N,Net-(A1-A4)*%
X177760000Y-69000000D03*
%TO.P,U1,LED6,LED6*%
%TO.N,Net-(A1-A5)*%
X175220000Y-69000000D03*
%TO.P,U1,LED7,LED7*%
%TO.N,Net-(A1-A6)*%
X172680000Y-69000000D03*
%TO.P,U1,LED8,LED8*%
%TO.N,Net-(A1-A7)*%
X170140000Y-69000000D03*
%TO.P,U1,LED_ON,LED_ON*%
%TO.N,unconnected-(U1-PadLED_ON)*%
X190460000Y-69000000D03*
%TD*%
D16*
%TO.N,GND*%
X205820000Y-69460000D02*
X202760000Y-66400000D01*
X205820000Y-96680000D02*
X205820000Y-69460000D01*
X202760000Y-66400000D02*
X195580000Y-66400000D01*
X195580000Y-66400000D02*
X192980000Y-69000000D01*
X197130000Y-105370000D02*
X205820000Y-96680000D01*
X191000000Y-105370000D02*
X197130000Y-105370000D01*
%TO.N,Net-(A1-D12)*%
X202470000Y-69460000D02*
X200600000Y-69460000D01*
X203920000Y-70910000D02*
X202470000Y-69460000D01*
X203920000Y-92700000D02*
X203920000Y-70910000D01*
X199610000Y-97010000D02*
X203920000Y-92700000D01*
%TO.N,Net-(J5-Pin_1)*%
X142514500Y-86014500D02*
X139303000Y-86014500D01*
X147750000Y-108220000D02*
X143710000Y-104180000D01*
X198730000Y-108220000D02*
X147750000Y-108220000D01*
X143710000Y-87210000D02*
X142514500Y-86014500D01*
X200025000Y-106925000D02*
X198730000Y-108220000D01*
X203800000Y-106925000D02*
X200025000Y-106925000D01*
X143710000Y-104180000D02*
X143710000Y-87210000D01*
%TO.N,Net-(J5-Pin_2)*%
X141630000Y-89030000D02*
X141154500Y-88554500D01*
X146610000Y-109990000D02*
X141630000Y-105010000D01*
X141630000Y-105010000D02*
X141630000Y-89030000D01*
X200445000Y-109465000D02*
X199920000Y-109990000D01*
X141154500Y-88554500D02*
X139303000Y-88554500D01*
X203800000Y-109465000D02*
X200445000Y-109465000D01*
X199920000Y-109990000D02*
X146610000Y-109990000D01*
%TO.N,Net-(A1-D4)*%
X145720000Y-85410000D02*
X139200000Y-78890000D01*
X145720000Y-102900000D02*
X145720000Y-85410000D01*
X148990000Y-106170000D02*
X145720000Y-102900000D01*
X174830000Y-106170000D02*
X148990000Y-106170000D01*
X179290000Y-101710000D02*
X174830000Y-106170000D01*
X179290000Y-97010000D02*
X179290000Y-101710000D01*
X139200000Y-78890000D02*
X139200000Y-74555000D01*
%TO.N,GND*%
X140245000Y-72025000D02*
X140255000Y-72015000D01*
X140255000Y-72015000D02*
X139200000Y-72015000D01*
X141640000Y-73420000D02*
X140245000Y-72025000D01*
X147760000Y-82910000D02*
X141640000Y-76790000D01*
X160110000Y-103990000D02*
X150640000Y-103990000D01*
X160165000Y-103935000D02*
X160110000Y-103990000D01*
X147760000Y-101110000D02*
X147760000Y-82910000D01*
X141640000Y-76790000D02*
X141640000Y-73420000D01*
X160165000Y-101700000D02*
X160165000Y-103935000D01*
X150640000Y-103990000D02*
X147760000Y-101110000D01*
%TO.N,Net-(A1-A1)*%
X189450000Y-75650000D02*
X185380000Y-71580000D01*
X189450000Y-81770000D02*
X189450000Y-75650000D01*
X185380000Y-71580000D02*
X185380000Y-69000000D01*
%TO.N,Net-(A1-A3)*%
X180280000Y-72650000D02*
X184370000Y-76740000D01*
X184370000Y-76740000D02*
X184370000Y-81770000D01*
X180280000Y-69000000D02*
X180280000Y-72650000D01*
%TO.N,GND*%
X194600000Y-72000000D02*
X200600000Y-72000000D01*
X154303000Y-88525500D02*
X152875500Y-88525500D01*
X162850000Y-84600000D02*
X165500000Y-84600000D01*
X192980000Y-69000000D02*
X192980000Y-67080000D01*
X151900000Y-87550000D02*
X151900000Y-81620000D01*
X171670000Y-99230000D02*
X171670000Y-97010000D01*
X137600000Y-66670000D02*
X135660000Y-68610000D01*
X169200000Y-101700000D02*
X171670000Y-99230000D01*
X160165000Y-101700000D02*
X169200000Y-101700000D01*
X192980000Y-69000000D02*
X192980000Y-70380000D01*
X192980000Y-70380000D02*
X194600000Y-72000000D01*
X151900000Y-81620000D02*
X153370000Y-80150000D01*
X192570000Y-66670000D02*
X137600000Y-66670000D01*
X193280000Y-68680000D02*
X193300000Y-68680000D01*
X152875500Y-88525500D02*
X151900000Y-87550000D01*
X165500000Y-84600000D02*
X166590000Y-83510000D01*
X153370000Y-80150000D02*
X158400000Y-80150000D01*
X193300000Y-68680000D02*
X192980000Y-69000000D01*
X192980000Y-67080000D02*
X192570000Y-66670000D01*
X166590000Y-83510000D02*
X166590000Y-81770000D01*
X135660000Y-70810000D02*
X136865000Y-72015000D01*
X136865000Y-72015000D02*
X139200000Y-72015000D01*
X158400000Y-80150000D02*
X162850000Y-84600000D01*
X135660000Y-68610000D02*
X135660000Y-70810000D01*
%TO.N,Net-(A1-D6)*%
X184370000Y-94370000D02*
X184370000Y-97010000D01*
X182000000Y-92000000D02*
X184370000Y-94370000D01*
X154318500Y-93590000D02*
X156100000Y-93590000D01*
X157690000Y-92000000D02*
X182000000Y-92000000D01*
X154303000Y-93605500D02*
X154318500Y-93590000D01*
X156100000Y-93590000D02*
X157690000Y-92000000D01*
%TO.N,Net-(A1-D5)*%
X181830000Y-95230000D02*
X180500000Y-93900000D01*
X181830000Y-97010000D02*
X181830000Y-95230000D01*
X157154500Y-96145500D02*
X154303000Y-96145500D01*
X180500000Y-93900000D02*
X159400000Y-93900000D01*
X159400000Y-93900000D02*
X157154500Y-96145500D01*
D17*
%TO.N,Net-(A1-VIN)*%
X149830000Y-88750000D02*
X152145500Y-91065500D01*
X152145500Y-91065500D02*
X152574500Y-91065500D01*
X164050000Y-81770000D02*
X164050000Y-80140000D01*
X161430000Y-77520000D02*
X152150000Y-77520000D01*
X157625000Y-101700000D02*
X152310000Y-101700000D01*
X152310000Y-101700000D02*
X149960000Y-99350000D01*
X152574500Y-91065500D02*
X154303000Y-91065500D01*
X164050000Y-80140000D02*
X161430000Y-77520000D01*
X149830000Y-79840000D02*
X149830000Y-88750000D01*
X149960000Y-93680000D02*
X152574500Y-91065500D01*
X149960000Y-99350000D02*
X149960000Y-93680000D01*
X152150000Y-77520000D02*
X149830000Y-79840000D01*
D16*
%TO.N,Net-(A1-A0)*%
X191990000Y-81770000D02*
X191990000Y-75220000D01*
X191990000Y-75220000D02*
X187920000Y-71150000D01*
X187920000Y-71150000D02*
X187920000Y-69000000D01*
%TO.N,Net-(A1-D4)*%
X139200000Y-74555000D02*
X139255000Y-74610000D01*
%TO.N,Net-(A1-D9)*%
X161100000Y-89700000D02*
X157385500Y-85985500D01*
X191990000Y-91990000D02*
X189700000Y-89700000D01*
X191990000Y-97010000D02*
X191990000Y-91990000D01*
X157385500Y-85985500D02*
X154303000Y-85985500D01*
X189700000Y-89700000D02*
X161100000Y-89700000D01*
%TO.N,Net-(A1-A5)*%
X175200000Y-73640000D02*
X179290000Y-77730000D01*
X179290000Y-77730000D02*
X179290000Y-81770000D01*
X175200000Y-69000000D02*
X175200000Y-73640000D01*
%TO.N,Net-(A1-A2)*%
X186910000Y-76090000D02*
X186910000Y-81770000D01*
X182820000Y-69000000D02*
X182820000Y-72000000D01*
X182820000Y-72000000D02*
X186910000Y-76090000D01*
%TO.N,Net-(A1-A4)*%
X181830000Y-77300000D02*
X181830000Y-81770000D01*
X177740000Y-73210000D02*
X181830000Y-77300000D01*
X177740000Y-69000000D02*
X177740000Y-73210000D01*
%TO.N,Net-(A1-3V3)*%
X172750000Y-84740000D02*
X170090000Y-82080000D01*
X197070000Y-81770000D02*
X197070000Y-83430000D01*
X195740000Y-84760000D02*
X195720000Y-84740000D01*
X167560000Y-77430000D02*
X167560000Y-69000000D01*
X170090000Y-79960000D02*
X167560000Y-77430000D01*
X197120000Y-81720000D02*
X197070000Y-81770000D01*
X197070000Y-78070000D02*
X200600000Y-74540000D01*
X197070000Y-81770000D02*
X197070000Y-78070000D01*
D17*
X167085000Y-69475000D02*
X167560000Y-69000000D01*
D16*
X195720000Y-84740000D02*
X172750000Y-84740000D01*
X139200000Y-69475000D02*
X167085000Y-69475000D01*
X200600000Y-74540000D02*
X200940000Y-74540000D01*
X170090000Y-82080000D02*
X170090000Y-79960000D01*
X197070000Y-83430000D02*
X195740000Y-84760000D01*
%TO.N,Net-(A1-A6)*%
X172660000Y-69000000D02*
X172660000Y-74360000D01*
X176750000Y-78450000D02*
X176750000Y-81770000D01*
X172660000Y-74360000D02*
X176750000Y-78450000D01*
%TO.N,Net-(A1-A7)*%
X170120000Y-74910000D02*
X174210000Y-79000000D01*
X170120000Y-69000000D02*
X170120000Y-74910000D01*
X174210000Y-79000000D02*
X174210000Y-81770000D01*
%TO.N,Net-(A1-D10)*%
X158145500Y-83445500D02*
X162000000Y-87300000D01*
X162000000Y-87300000D02*
X190400000Y-87300000D01*
X190400000Y-87300000D02*
X194530000Y-91430000D01*
X194530000Y-91430000D02*
X194530000Y-97010000D01*
X154303000Y-83445500D02*
X158145500Y-83445500D01*
%TO.N,Net-(J4-Pin_1)*%
X134480000Y-92580000D02*
X134480000Y-100980000D01*
X135965500Y-91094500D02*
X134480000Y-92580000D01*
X139303000Y-91094500D02*
X135965500Y-91094500D01*
X134480000Y-100980000D02*
X137010000Y-103510000D01*
X137010000Y-103510000D02*
X137010000Y-107045000D01*
%TO.N,Net-(J4-Pin_2)*%
X140000000Y-108500000D02*
X138915000Y-109585000D01*
X136470000Y-99970000D02*
X140000000Y-103500000D01*
X140000000Y-103500000D02*
X140000000Y-108500000D01*
X138915000Y-109585000D02*
X137010000Y-109585000D01*
X136785500Y-93634500D02*
X136470000Y-93950000D01*
X139303000Y-93634500D02*
X136785500Y-93634500D01*
X136470000Y-93950000D02*
X136470000Y-99970000D01*
%TO.N,Net-(A1-D11)*%
X195670000Y-100870000D02*
X197070000Y-99470000D01*
X191000000Y-100870000D02*
X195670000Y-100870000D01*
X197070000Y-99470000D02*
X197070000Y-97010000D01*
%TD*%
%TA.AperFunction,NonConductor*%
G36*
X206785788Y-65069454D02*
G01*
X206866570Y-65123430D01*
X206920546Y-65204212D01*
X206939500Y-65299500D01*
X206939500Y-67714912D01*
X206920546Y-67810200D01*
X206866570Y-67890982D01*
X206785788Y-67944958D01*
X206690500Y-67963912D01*
X206595212Y-67944958D01*
X206514430Y-67890982D01*
X206012654Y-67389206D01*
X204099016Y-65475567D01*
X204045042Y-65394788D01*
X204026088Y-65299500D01*
X204045042Y-65204212D01*
X204099018Y-65123430D01*
X204179800Y-65069454D01*
X204275088Y-65050500D01*
X206690500Y-65050500D01*
X206785788Y-65069454D01*
G37*
%TD.AperFunction*%
%TA.AperFunction,NonConductor*%
G36*
X198648796Y-68019454D02*
G01*
X198729578Y-68073430D01*
X198783554Y-68154212D01*
X198802508Y-68249500D01*
X198792901Y-68317994D01*
X198760114Y-68432582D01*
X198749500Y-68551963D01*
X198749500Y-69409141D01*
X198749501Y-70150500D01*
X198730547Y-70245788D01*
X198676571Y-70326569D01*
X198595789Y-70380546D01*
X198500501Y-70399500D01*
X195366089Y-70399500D01*
X195270801Y-70380546D01*
X195190019Y-70326570D01*
X194958085Y-70094636D01*
X194904109Y-70013854D01*
X194885155Y-69918566D01*
X194904109Y-69823278D01*
X194904109Y-69823277D01*
X194965892Y-69674120D01*
X195036893Y-69409141D01*
X195056574Y-69259640D01*
X195087803Y-69167644D01*
X195127375Y-69116073D01*
X196170020Y-68073430D01*
X196250801Y-68019454D01*
X196346089Y-68000500D01*
X198553508Y-68000500D01*
X198648796Y-68019454D01*
G37*
%TD.AperFunction*%
%TA.AperFunction,NonConductor*%
G36*
X191350859Y-70940073D02*
G01*
X191389571Y-70944655D01*
X191398206Y-70949491D01*
X191407913Y-70951422D01*
X191440325Y-70973078D01*
X191474338Y-70992127D01*
X191480465Y-70999899D01*
X191488695Y-71005398D01*
X191534486Y-71068422D01*
X191549767Y-71098414D01*
X191611132Y-71218848D01*
X191732298Y-71385618D01*
X191732300Y-71385623D01*
X191759200Y-71422648D01*
X191759202Y-71422650D01*
X191759204Y-71422652D01*
X191759207Y-71422656D01*
X193379207Y-73042656D01*
X193379206Y-73042656D01*
X193557341Y-73220790D01*
X193557344Y-73220793D01*
X193761155Y-73368870D01*
X193985621Y-73483241D01*
X194225215Y-73561090D01*
X194312729Y-73574951D01*
X194474028Y-73600499D01*
X194474035Y-73600499D01*
X194474038Y-73600500D01*
X194725962Y-73600500D01*
X198613533Y-73600500D01*
X198648149Y-73607385D01*
X198683308Y-73610476D01*
X198695423Y-73616788D01*
X198708821Y-73619454D01*
X198738167Y-73639062D01*
X198769467Y-73655372D01*
X198778243Y-73665839D01*
X198789603Y-73673430D01*
X198809212Y-73702778D01*
X198831887Y-73729823D01*
X198835989Y-73742853D01*
X198843579Y-73754212D01*
X198850464Y-73788827D01*
X198861064Y-73822493D01*
X198859431Y-73833908D01*
X198862533Y-73849500D01*
X198852557Y-73919275D01*
X198848764Y-73932267D01*
X198843946Y-73943900D01*
X198828037Y-74003271D01*
X198827254Y-74005954D01*
X198806057Y-74046631D01*
X198785772Y-74087765D01*
X198782942Y-74090991D01*
X198782358Y-74092113D01*
X198780850Y-74093376D01*
X198764300Y-74112249D01*
X196027344Y-76849207D01*
X196027343Y-76849206D01*
X195849209Y-77027341D01*
X195849206Y-77027345D01*
X195701134Y-77231148D01*
X195586757Y-77455625D01*
X195508909Y-77695217D01*
X195469500Y-77944028D01*
X195469500Y-79837652D01*
X195450546Y-79932940D01*
X195396570Y-80013722D01*
X195315788Y-80067698D01*
X195220500Y-80086652D01*
X195125215Y-80067699D01*
X195109997Y-80061395D01*
X195109989Y-80061393D01*
X194882014Y-80000307D01*
X194882007Y-80000306D01*
X194648011Y-79969500D01*
X194411989Y-79969500D01*
X194177992Y-80000306D01*
X194177990Y-80000306D01*
X194177986Y-80000307D01*
X194060707Y-80031732D01*
X193950010Y-80061393D01*
X193950002Y-80061395D01*
X193934785Y-80067699D01*
X193839497Y-80086652D01*
X193744209Y-80067697D01*
X193663428Y-80013719D01*
X193609453Y-79932937D01*
X193590500Y-79837652D01*
X193590500Y-75094040D01*
X193590499Y-75094028D01*
X193551090Y-74845217D01*
X193551090Y-74845215D01*
X193473241Y-74605621D01*
X193358870Y-74381155D01*
X193210793Y-74177344D01*
X193124440Y-74090991D01*
X193032656Y-73999206D01*
X193032656Y-73999207D01*
X190537979Y-71504530D01*
X190484003Y-71423748D01*
X190465049Y-71328460D01*
X190484003Y-71233172D01*
X190537979Y-71152390D01*
X190618761Y-71098414D01*
X190681545Y-71081590D01*
X190869141Y-71056893D01*
X191134120Y-70985892D01*
X191217339Y-70951421D01*
X191255574Y-70943816D01*
X191293090Y-70933236D01*
X191302916Y-70934399D01*
X191312625Y-70932468D01*
X191350859Y-70940073D01*
G37*
%TD.AperFunction*%
%TA.AperFunction,NonConductor*%
G36*
X165805788Y-71094454D02*
G01*
X165886570Y-71148430D01*
X165940546Y-71229212D01*
X165959500Y-71324500D01*
X165959500Y-77555971D01*
X165998909Y-77804782D01*
X166076757Y-78044374D01*
X166076759Y-78044379D01*
X166191130Y-78268846D01*
X166285628Y-78398910D01*
X166285629Y-78398911D01*
X166339208Y-78472657D01*
X167578735Y-79712184D01*
X167632711Y-79792966D01*
X167651665Y-79888254D01*
X167632711Y-79983542D01*
X167578735Y-80064324D01*
X167497953Y-80118300D01*
X167402665Y-80137254D01*
X167307378Y-80118300D01*
X167169998Y-80061396D01*
X167169997Y-80061395D01*
X167169993Y-80061394D01*
X166942014Y-80000307D01*
X166942007Y-80000306D01*
X166708011Y-79969500D01*
X166471989Y-79969500D01*
X166237990Y-80000306D01*
X166086487Y-80040901D01*
X166038231Y-80044063D01*
X165990267Y-80047349D01*
X165989914Y-80047230D01*
X165989540Y-80047255D01*
X165943813Y-80031732D01*
X165898177Y-80016391D01*
X165897895Y-80016145D01*
X165897541Y-80016025D01*
X165861209Y-79984162D01*
X165824944Y-79952547D01*
X165824820Y-79952250D01*
X165824496Y-79951966D01*
X165781717Y-79865538D01*
X165777352Y-79849437D01*
X165770549Y-79797761D01*
X165711158Y-79576114D01*
X165694385Y-79535621D01*
X165627765Y-79374784D01*
X165623345Y-79364113D01*
X165569297Y-79270500D01*
X165565997Y-79264785D01*
X165508613Y-79165392D01*
X165508605Y-79165379D01*
X165430906Y-79064121D01*
X165430897Y-79064110D01*
X165386195Y-79005853D01*
X165368920Y-78983339D01*
X162586661Y-76201080D01*
X162488320Y-76125621D01*
X162431388Y-76081935D01*
X162404614Y-76061390D01*
X162404602Y-76061383D01*
X162205893Y-75946658D01*
X162205882Y-75946653D01*
X161993887Y-75858842D01*
X161993876Y-75858839D01*
X161884380Y-75829500D01*
X161884378Y-75829499D01*
X161884376Y-75829498D01*
X161791804Y-75804694D01*
X161772239Y-75799452D01*
X161745779Y-75795968D01*
X161745764Y-75795966D01*
X161745764Y-75795965D01*
X161544734Y-75769500D01*
X152035266Y-75769500D01*
X151834228Y-75795967D01*
X151834226Y-75795967D01*
X151807770Y-75799450D01*
X151807757Y-75799453D01*
X151695619Y-75829500D01*
X151695618Y-75829499D01*
X151586119Y-75858839D01*
X151374117Y-75946653D01*
X151374106Y-75946658D01*
X151175387Y-76061388D01*
X151175386Y-76061389D01*
X151175387Y-76061390D01*
X150993338Y-76201081D01*
X150993334Y-76201084D01*
X148511078Y-78683341D01*
X148449158Y-78764038D01*
X148371389Y-78865387D01*
X148371383Y-78865397D01*
X148256658Y-79064106D01*
X148256656Y-79064111D01*
X148168841Y-79276114D01*
X148109451Y-79497765D01*
X148079500Y-79725266D01*
X148079500Y-80364911D01*
X148060546Y-80460199D01*
X148006570Y-80540981D01*
X147925788Y-80594957D01*
X147830500Y-80613911D01*
X147735212Y-80594957D01*
X147654430Y-80540981D01*
X143313430Y-76199981D01*
X143259454Y-76119199D01*
X143240500Y-76023911D01*
X143240500Y-73294040D01*
X143240499Y-73294028D01*
X143201090Y-73045217D01*
X143201090Y-73045215D01*
X143123241Y-72805621D01*
X143008870Y-72581155D01*
X142860793Y-72377344D01*
X142860790Y-72377341D01*
X142682656Y-72199206D01*
X142682656Y-72199207D01*
X141984019Y-71500570D01*
X141930043Y-71419788D01*
X141911089Y-71324500D01*
X141930043Y-71229212D01*
X141984019Y-71148430D01*
X142064801Y-71094454D01*
X142160089Y-71075500D01*
X165710500Y-71075500D01*
X165805788Y-71094454D01*
G37*
%TD.AperFunction*%
%TA.AperFunction,NonConductor*%
G36*
X160697067Y-79289454D02*
G01*
X160777849Y-79343430D01*
X162226570Y-80792151D01*
X162280546Y-80872933D01*
X162299500Y-80968221D01*
X162299500Y-81184911D01*
X162280546Y-81280199D01*
X162226570Y-81360981D01*
X162145788Y-81414957D01*
X162050500Y-81433911D01*
X161955212Y-81414957D01*
X161874430Y-81360981D01*
X160209019Y-79695570D01*
X160155043Y-79614788D01*
X160136089Y-79519500D01*
X160155043Y-79424212D01*
X160209019Y-79343430D01*
X160289801Y-79289454D01*
X160385089Y-79270500D01*
X160601779Y-79270500D01*
X160697067Y-79289454D01*
G37*
%TD.AperFunction*%
%TA.AperFunction,NonConductor*%
G36*
X171838921Y-78930752D02*
G01*
X171923688Y-78978224D01*
X171938046Y-78991495D01*
X172536570Y-79590019D01*
X172590546Y-79670801D01*
X172609500Y-79766089D01*
X172609500Y-80879486D01*
X172590546Y-80974773D01*
X172501396Y-81190001D01*
X172501394Y-81190007D01*
X172442662Y-81409199D01*
X172440306Y-81417991D01*
X172419091Y-81579134D01*
X172408620Y-81609978D01*
X172402267Y-81641920D01*
X172393141Y-81655577D01*
X172387861Y-81671133D01*
X172366387Y-81695618D01*
X172348291Y-81722702D01*
X172334630Y-81731829D01*
X172323802Y-81744177D01*
X172294592Y-81758581D01*
X172267509Y-81776678D01*
X172251398Y-81779882D01*
X172236666Y-81787148D01*
X172204163Y-81789278D01*
X172172221Y-81795632D01*
X172156111Y-81792427D01*
X172139719Y-81793502D01*
X172108874Y-81783031D01*
X172076933Y-81776678D01*
X172063275Y-81767552D01*
X172047720Y-81762272D01*
X171996151Y-81722702D01*
X171763430Y-81489981D01*
X171709454Y-81409199D01*
X171690500Y-81313911D01*
X171690500Y-79834040D01*
X171690499Y-79834028D01*
X171651090Y-79585217D01*
X171651090Y-79585215D01*
X171573241Y-79345621D01*
X171540116Y-79280609D01*
X171513744Y-79187102D01*
X171525163Y-79090620D01*
X171572635Y-79005853D01*
X171648932Y-78945705D01*
X171742439Y-78919333D01*
X171838921Y-78930752D01*
G37*
%TD.AperFunction*%
%TA.AperFunction,NonConductor*%
G36*
X168466466Y-82670947D02*
G01*
X168493953Y-82671611D01*
X168513655Y-82680334D01*
X168534788Y-82684538D01*
X168557647Y-82699812D01*
X168582790Y-82710944D01*
X168597654Y-82726543D01*
X168615570Y-82738514D01*
X168636463Y-82767271D01*
X168649812Y-82781280D01*
X168656058Y-82791135D01*
X168721130Y-82918845D01*
X168840912Y-83083711D01*
X168845557Y-83090104D01*
X168869207Y-83122656D01*
X171020981Y-85274430D01*
X171074957Y-85355212D01*
X171093911Y-85450500D01*
X171074957Y-85545788D01*
X171020981Y-85626570D01*
X170940199Y-85680546D01*
X170844911Y-85699500D01*
X167265089Y-85699500D01*
X167169801Y-85680546D01*
X167089019Y-85626570D01*
X167035043Y-85545788D01*
X167016089Y-85450500D01*
X167035043Y-85355212D01*
X167089019Y-85274430D01*
X167382666Y-84980783D01*
X167810793Y-84552656D01*
X167883916Y-84452010D01*
X167958870Y-84348845D01*
X168073241Y-84124379D01*
X168151090Y-83884785D01*
X168171881Y-83753513D01*
X168190499Y-83635971D01*
X168190500Y-83635959D01*
X168190500Y-82914584D01*
X168195863Y-82887617D01*
X168196527Y-82860131D01*
X168205250Y-82840428D01*
X168209454Y-82819296D01*
X168224728Y-82796436D01*
X168235860Y-82771294D01*
X168251459Y-82756429D01*
X168263430Y-82738514D01*
X168286291Y-82723238D01*
X168306196Y-82704272D01*
X168326296Y-82696508D01*
X168344212Y-82684538D01*
X168371177Y-82679174D01*
X168396826Y-82669268D01*
X168418366Y-82669787D01*
X168439500Y-82665584D01*
X168466466Y-82670947D01*
G37*
%TD.AperFunction*%
%TA.AperFunction,NonConductor*%
G36*
X156714699Y-87604954D02*
G01*
X156795481Y-87658930D01*
X159110981Y-89974430D01*
X159164957Y-90055212D01*
X159183911Y-90150500D01*
X159164957Y-90245788D01*
X159110981Y-90326570D01*
X159030199Y-90380546D01*
X158934911Y-90399500D01*
X157815962Y-90399500D01*
X157564038Y-90399500D01*
X157564035Y-90399500D01*
X157564026Y-90399501D01*
X157315218Y-90438908D01*
X157075626Y-90516756D01*
X157075622Y-90516757D01*
X157075622Y-90516758D01*
X156851156Y-90631129D01*
X156851154Y-90631130D01*
X156851149Y-90631133D01*
X156647342Y-90779208D01*
X156647337Y-90779212D01*
X156548789Y-90877760D01*
X156468007Y-90931736D01*
X156372719Y-90950690D01*
X156277431Y-90931736D01*
X156196650Y-90877759D01*
X156142674Y-90796977D01*
X156125850Y-90734187D01*
X156121838Y-90703711D01*
X156102390Y-90631129D01*
X156059059Y-90469417D01*
X156059057Y-90469411D01*
X156059054Y-90469400D01*
X155999892Y-90326570D01*
X155966229Y-90245298D01*
X155966221Y-90245282D01*
X155880971Y-90097626D01*
X155844936Y-90035211D01*
X155777308Y-89947076D01*
X155734341Y-89859946D01*
X155727986Y-89762999D01*
X155759216Y-89671000D01*
X155777301Y-89643931D01*
X155844936Y-89555789D01*
X155966224Y-89345712D01*
X155968476Y-89340277D01*
X156043681Y-89158713D01*
X156059054Y-89121600D01*
X156121838Y-88887289D01*
X156153500Y-88646788D01*
X156153500Y-88404212D01*
X156121838Y-88163711D01*
X156108121Y-88112521D01*
X156059059Y-87929417D01*
X156059056Y-87929410D01*
X156059054Y-87929400D01*
X156059049Y-87929389D01*
X156056437Y-87921693D01*
X156057630Y-87921287D01*
X156049171Y-87878760D01*
X156040467Y-87835012D01*
X156040468Y-87835005D01*
X156040467Y-87835000D01*
X156049166Y-87791262D01*
X156059416Y-87739723D01*
X156059420Y-87739717D01*
X156059421Y-87739712D01*
X156088663Y-87695946D01*
X156113389Y-87658939D01*
X156113392Y-87658936D01*
X156113397Y-87658930D01*
X156162555Y-87626083D01*
X156194168Y-87604959D01*
X156194173Y-87604958D01*
X156194179Y-87604954D01*
X156245706Y-87594704D01*
X156289455Y-87586000D01*
X156619411Y-87586000D01*
X156714699Y-87604954D01*
G37*
%TD.AperFunction*%
%TA.AperFunction,NonConductor*%
G36*
X136450200Y-65069454D02*
G01*
X136530982Y-65123430D01*
X136584958Y-65204212D01*
X136603912Y-65299500D01*
X136584958Y-65394788D01*
X136530984Y-65475566D01*
X134617344Y-67389207D01*
X134617343Y-67389206D01*
X134439209Y-67567341D01*
X134439206Y-67567345D01*
X134291134Y-67771148D01*
X134176757Y-67995625D01*
X134098909Y-68235217D01*
X134059500Y-68484028D01*
X134059500Y-70935971D01*
X134098909Y-71184782D01*
X134176196Y-71422648D01*
X134176759Y-71424379D01*
X134291130Y-71648845D01*
X134375070Y-71764379D01*
X134439207Y-71852656D01*
X135644207Y-73057656D01*
X135644206Y-73057656D01*
X135807341Y-73220790D01*
X135822344Y-73235793D01*
X136026155Y-73383870D01*
X136250621Y-73498241D01*
X136490215Y-73576090D01*
X136577729Y-73589951D01*
X136739028Y-73615499D01*
X136739035Y-73615499D01*
X136739038Y-73615500D01*
X137213533Y-73615500D01*
X137308821Y-73634454D01*
X137389603Y-73688430D01*
X137443579Y-73769212D01*
X137462533Y-73864500D01*
X137445369Y-73950787D01*
X137446563Y-73951193D01*
X137443940Y-73958917D01*
X137381163Y-74193204D01*
X137381162Y-74193209D01*
X137349500Y-74433712D01*
X137349500Y-74676287D01*
X137381162Y-74916790D01*
X137381163Y-74916795D01*
X137443940Y-75151082D01*
X137443948Y-75151105D01*
X137536770Y-75375201D01*
X137536774Y-75375210D01*
X137555214Y-75407148D01*
X137566140Y-75426073D01*
X137597370Y-75518070D01*
X137599500Y-75550572D01*
X137599500Y-79015971D01*
X137638909Y-79264782D01*
X137665176Y-79345625D01*
X137716759Y-79504379D01*
X137831130Y-79728845D01*
X137831134Y-79728852D01*
X137858189Y-79766089D01*
X137881201Y-79797762D01*
X137979207Y-79932656D01*
X138626848Y-80580297D01*
X139245481Y-81198930D01*
X139299457Y-81279712D01*
X139318411Y-81375000D01*
X139299457Y-81470288D01*
X139245481Y-81551070D01*
X139164699Y-81605046D01*
X139069411Y-81624000D01*
X138394968Y-81624000D01*
X138394956Y-81624001D01*
X138275585Y-81634613D01*
X138079954Y-81690590D01*
X138079946Y-81690593D01*
X137899597Y-81784799D01*
X137899592Y-81784802D01*
X137741893Y-81913389D01*
X137741889Y-81913393D01*
X137613302Y-82071092D01*
X137613299Y-82071097D01*
X137519093Y-82251446D01*
X137519090Y-82251454D01*
X137463115Y-82447078D01*
X137463114Y-82447082D01*
X137452500Y-82566463D01*
X137452500Y-84382531D01*
X137452501Y-84382543D01*
X137463113Y-84501914D01*
X137519090Y-84697545D01*
X137519093Y-84697553D01*
X137613299Y-84877902D01*
X137613306Y-84877913D01*
X137627203Y-84894956D01*
X137672731Y-84980783D01*
X137681948Y-85077500D01*
X137653451Y-85170382D01*
X137649869Y-85176803D01*
X137639778Y-85194281D01*
X137639774Y-85194289D01*
X137546948Y-85418394D01*
X137546940Y-85418417D01*
X137484163Y-85652704D01*
X137484162Y-85652709D01*
X137452500Y-85893212D01*
X137452500Y-86135787D01*
X137484162Y-86376290D01*
X137484163Y-86376295D01*
X137546940Y-86610582D01*
X137546948Y-86610605D01*
X137639770Y-86834701D01*
X137639778Y-86834717D01*
X137761058Y-87044779D01*
X137761064Y-87044789D01*
X137828690Y-87132921D01*
X137871659Y-87220055D01*
X137878013Y-87317002D01*
X137846783Y-87409001D01*
X137828693Y-87436074D01*
X137761064Y-87524211D01*
X137761061Y-87524215D01*
X137761058Y-87524220D01*
X137639778Y-87734282D01*
X137639770Y-87734298D01*
X137546948Y-87958394D01*
X137546940Y-87958417D01*
X137484163Y-88192704D01*
X137484162Y-88192709D01*
X137452500Y-88433212D01*
X137452500Y-88675787D01*
X137484162Y-88916290D01*
X137484163Y-88916295D01*
X137546940Y-89150582D01*
X137549563Y-89158307D01*
X137548367Y-89158713D01*
X137565533Y-89244988D01*
X137546584Y-89340277D01*
X137492611Y-89421061D01*
X137411832Y-89475041D01*
X137316545Y-89494000D01*
X135839528Y-89494000D01*
X135590717Y-89533409D01*
X135351125Y-89611257D01*
X135351121Y-89611258D01*
X135351121Y-89611259D01*
X135126655Y-89725630D01*
X135126653Y-89725631D01*
X135126648Y-89725634D01*
X135012123Y-89808842D01*
X134922847Y-89873704D01*
X133745570Y-91050981D01*
X133664788Y-91104957D01*
X133569500Y-91123911D01*
X133474212Y-91104957D01*
X133393430Y-91050981D01*
X133339454Y-90970199D01*
X133320500Y-90874911D01*
X133320500Y-65299500D01*
X133339454Y-65204212D01*
X133393430Y-65123430D01*
X133474212Y-65069454D01*
X133569500Y-65050500D01*
X136354912Y-65050500D01*
X136450200Y-65069454D01*
G37*
%TD.AperFunction*%
%TA.AperFunction,NonConductor*%
G36*
X202165787Y-75808595D02*
G01*
X202246568Y-75862571D01*
X202300545Y-75943352D01*
X202319500Y-76038640D01*
X202319500Y-91933910D01*
X202300546Y-92029198D01*
X202246570Y-92109980D01*
X199107960Y-95248589D01*
X199027179Y-95302565D01*
X198811951Y-95391715D01*
X198811945Y-95391718D01*
X198607559Y-95509721D01*
X198607551Y-95509726D01*
X198491581Y-95598713D01*
X198404445Y-95641683D01*
X198307498Y-95648037D01*
X198215499Y-95616807D01*
X198188419Y-95598713D01*
X198085126Y-95519454D01*
X198072450Y-95509727D01*
X198072440Y-95509721D01*
X197868054Y-95391718D01*
X197868043Y-95391713D01*
X197707678Y-95325288D01*
X197649993Y-95301394D01*
X197422014Y-95240307D01*
X197422007Y-95240306D01*
X197188011Y-95209500D01*
X196951989Y-95209500D01*
X196717992Y-95240306D01*
X196717990Y-95240306D01*
X196717986Y-95240307D01*
X196545640Y-95286487D01*
X196490010Y-95301393D01*
X196490002Y-95301395D01*
X196474785Y-95307699D01*
X196379497Y-95326652D01*
X196284209Y-95307697D01*
X196203428Y-95253719D01*
X196149453Y-95172937D01*
X196130500Y-95077652D01*
X196130500Y-91304040D01*
X196130499Y-91304028D01*
X196091090Y-91055217D01*
X196091090Y-91055215D01*
X196013241Y-90815621D01*
X195898870Y-90591155D01*
X195750793Y-90387344D01*
X195690019Y-90326570D01*
X195572656Y-90209206D01*
X195572656Y-90209207D01*
X192129019Y-86765570D01*
X192075043Y-86684788D01*
X192056089Y-86589500D01*
X192075043Y-86494212D01*
X192129019Y-86413430D01*
X192209801Y-86359454D01*
X192305089Y-86340500D01*
X195468169Y-86340500D01*
X195507120Y-86343565D01*
X195575047Y-86354324D01*
X195614031Y-86360499D01*
X195614032Y-86360499D01*
X195614038Y-86360500D01*
X195614041Y-86360500D01*
X195865959Y-86360500D01*
X195865962Y-86360500D01*
X195865965Y-86360499D01*
X195865971Y-86360499D01*
X195983513Y-86341881D01*
X196114784Y-86321090D01*
X196354378Y-86243241D01*
X196578844Y-86128870D01*
X196782656Y-85980793D01*
X198290793Y-84472656D01*
X198305793Y-84452010D01*
X198438870Y-84268845D01*
X198553241Y-84044379D01*
X198631090Y-83804785D01*
X198654721Y-83655583D01*
X198688346Y-83564440D01*
X198754294Y-83493096D01*
X198842525Y-83452421D01*
X198939605Y-83448606D01*
X198995939Y-83464494D01*
X199030007Y-83478606D01*
X199257986Y-83539693D01*
X199491989Y-83570500D01*
X199728011Y-83570500D01*
X199962014Y-83539693D01*
X200189993Y-83478606D01*
X200408049Y-83388284D01*
X200612450Y-83270273D01*
X200799699Y-83126592D01*
X200966592Y-82959699D01*
X201110273Y-82772450D01*
X201228284Y-82568049D01*
X201318606Y-82349993D01*
X201379693Y-82122014D01*
X201410500Y-81888011D01*
X201410500Y-81651989D01*
X201379693Y-81417986D01*
X201318606Y-81190007D01*
X201228284Y-80971951D01*
X201226130Y-80968221D01*
X201110278Y-80767559D01*
X201110272Y-80767549D01*
X200966592Y-80580301D01*
X200799699Y-80413408D01*
X200612450Y-80269727D01*
X200549499Y-80233382D01*
X200408054Y-80151718D01*
X200408043Y-80151713D01*
X200250971Y-80086652D01*
X200189993Y-80061394D01*
X199962014Y-80000307D01*
X199962007Y-80000306D01*
X199728011Y-79969500D01*
X199491989Y-79969500D01*
X199257992Y-80000306D01*
X199257990Y-80000306D01*
X199257986Y-80000307D01*
X199140707Y-80031732D01*
X199030010Y-80061393D01*
X199030002Y-80061395D01*
X199014785Y-80067699D01*
X198919497Y-80086652D01*
X198824209Y-80067697D01*
X198743428Y-80013719D01*
X198689453Y-79932937D01*
X198670500Y-79837652D01*
X198670500Y-78836088D01*
X198689454Y-78740800D01*
X198743428Y-78660020D01*
X201027751Y-76375696D01*
X201108530Y-76321723D01*
X201139372Y-76311253D01*
X201196100Y-76296054D01*
X201420212Y-76203224D01*
X201630289Y-76081936D01*
X201822738Y-75934265D01*
X201894429Y-75862574D01*
X201975210Y-75808597D01*
X202070498Y-75789642D01*
X202165787Y-75808595D01*
G37*
%TD.AperFunction*%
%TA.AperFunction,NonConductor*%
G36*
X189029199Y-91319454D02*
G01*
X189109981Y-91373430D01*
X190316570Y-92580019D01*
X190370546Y-92660801D01*
X190389500Y-92756089D01*
X190389500Y-95077652D01*
X190370546Y-95172940D01*
X190316570Y-95253722D01*
X190235788Y-95307698D01*
X190140500Y-95326652D01*
X190045215Y-95307699D01*
X190029997Y-95301395D01*
X190029989Y-95301393D01*
X189802014Y-95240307D01*
X189802007Y-95240306D01*
X189568011Y-95209500D01*
X189331989Y-95209500D01*
X189097992Y-95240306D01*
X189097990Y-95240306D01*
X189097986Y-95240307D01*
X188925640Y-95286487D01*
X188870010Y-95301393D01*
X188870007Y-95301394D01*
X188651956Y-95391713D01*
X188651945Y-95391718D01*
X188447559Y-95509721D01*
X188447551Y-95509726D01*
X188331581Y-95598713D01*
X188244445Y-95641683D01*
X188147498Y-95648037D01*
X188055499Y-95616807D01*
X188028419Y-95598713D01*
X187925126Y-95519454D01*
X187912450Y-95509727D01*
X187912440Y-95509721D01*
X187708054Y-95391718D01*
X187708043Y-95391713D01*
X187547678Y-95325288D01*
X187489993Y-95301394D01*
X187262014Y-95240307D01*
X187262007Y-95240306D01*
X187028011Y-95209500D01*
X186791989Y-95209500D01*
X186557992Y-95240306D01*
X186557990Y-95240306D01*
X186557986Y-95240307D01*
X186385640Y-95286487D01*
X186330010Y-95301393D01*
X186330002Y-95301395D01*
X186314785Y-95307699D01*
X186219497Y-95326652D01*
X186124209Y-95307697D01*
X186043428Y-95253719D01*
X185989453Y-95172937D01*
X185970500Y-95077652D01*
X185970500Y-94244040D01*
X185970499Y-94244028D01*
X185941518Y-94061054D01*
X185931090Y-93995215D01*
X185853241Y-93755621D01*
X185738870Y-93531155D01*
X185590793Y-93327344D01*
X185590790Y-93327341D01*
X185412656Y-93149206D01*
X185412656Y-93149207D01*
X183989019Y-91725570D01*
X183935043Y-91644788D01*
X183916089Y-91549500D01*
X183935043Y-91454212D01*
X183989019Y-91373430D01*
X184069801Y-91319454D01*
X184165089Y-91300500D01*
X188933911Y-91300500D01*
X189029199Y-91319454D01*
G37*
%TD.AperFunction*%
%TA.AperFunction,NonConductor*%
G36*
X193384500Y-98403191D02*
G01*
X193411574Y-98421281D01*
X193527550Y-98510273D01*
X193546320Y-98521110D01*
X193731945Y-98628281D01*
X193731948Y-98628282D01*
X193731951Y-98628284D01*
X193950007Y-98718606D01*
X194177986Y-98779693D01*
X194177991Y-98779693D01*
X194179075Y-98779984D01*
X194266210Y-98822955D01*
X194330269Y-98896000D01*
X194361499Y-98987999D01*
X194355145Y-99084946D01*
X194312174Y-99172081D01*
X194239129Y-99236140D01*
X194147130Y-99267370D01*
X194114629Y-99269500D01*
X192405371Y-99269500D01*
X192310083Y-99250546D01*
X192229301Y-99196570D01*
X192175325Y-99115788D01*
X192156371Y-99020500D01*
X192175325Y-98925212D01*
X192229301Y-98844430D01*
X192310083Y-98790454D01*
X192340925Y-98779984D01*
X192342008Y-98779693D01*
X192342014Y-98779693D01*
X192569993Y-98718606D01*
X192788049Y-98628284D01*
X192992450Y-98510273D01*
X193108420Y-98421285D01*
X193195554Y-98378317D01*
X193292501Y-98371962D01*
X193384500Y-98403191D01*
G37*
%TD.AperFunction*%
%TA.AperFunction,NonConductor*%
G36*
X152300401Y-93937631D02*
G01*
X152316792Y-93936557D01*
X152347635Y-93947026D01*
X152379580Y-93953381D01*
X152393236Y-93962506D01*
X152408791Y-93967786D01*
X152433280Y-93989262D01*
X152460361Y-94007357D01*
X152469486Y-94021013D01*
X152481836Y-94031844D01*
X152496241Y-94061054D01*
X152514338Y-94088138D01*
X152524807Y-94118980D01*
X152546941Y-94201585D01*
X152546948Y-94201605D01*
X152639770Y-94425701D01*
X152639778Y-94425717D01*
X152761058Y-94635779D01*
X152761064Y-94635789D01*
X152828690Y-94723921D01*
X152871659Y-94811055D01*
X152878013Y-94908002D01*
X152846783Y-95000001D01*
X152828693Y-95027074D01*
X152761064Y-95115211D01*
X152761061Y-95115215D01*
X152761058Y-95115220D01*
X152639778Y-95325282D01*
X152639770Y-95325298D01*
X152546948Y-95549394D01*
X152546940Y-95549417D01*
X152484163Y-95783704D01*
X152484162Y-95783709D01*
X152452500Y-96024212D01*
X152452500Y-96266787D01*
X152484162Y-96507290D01*
X152484163Y-96507295D01*
X152546940Y-96741582D01*
X152546948Y-96741605D01*
X152639770Y-96965701D01*
X152639778Y-96965717D01*
X152761058Y-97175779D01*
X152761064Y-97175789D01*
X152908729Y-97368231D01*
X152908738Y-97368241D01*
X153080258Y-97539761D01*
X153080268Y-97539770D01*
X153149403Y-97592819D01*
X153272711Y-97687436D01*
X153335126Y-97723471D01*
X153482782Y-97808721D01*
X153482798Y-97808729D01*
X153594267Y-97854900D01*
X153706900Y-97901554D01*
X153706911Y-97901557D01*
X153706917Y-97901559D01*
X153834266Y-97935682D01*
X153941211Y-97964338D01*
X154181712Y-97996000D01*
X154424288Y-97996000D01*
X154664789Y-97964338D01*
X154826275Y-97921067D01*
X154899082Y-97901559D01*
X154899084Y-97901558D01*
X154899100Y-97901554D01*
X155086456Y-97823949D01*
X155123201Y-97808729D01*
X155123210Y-97808725D01*
X155136722Y-97800924D01*
X155174073Y-97779359D01*
X155266070Y-97748130D01*
X155298572Y-97746000D01*
X157280459Y-97746000D01*
X157280462Y-97746000D01*
X157280465Y-97745999D01*
X157280471Y-97745999D01*
X157398013Y-97727381D01*
X157529285Y-97706590D01*
X157768879Y-97628741D01*
X157993345Y-97514370D01*
X158197156Y-97366293D01*
X158375293Y-97188156D01*
X159990019Y-95573430D01*
X160070801Y-95519454D01*
X160166089Y-95500500D01*
X162082893Y-95500500D01*
X162178181Y-95519454D01*
X162258963Y-95573430D01*
X162312939Y-95654212D01*
X162331893Y-95749500D01*
X162317520Y-95824226D01*
X162319565Y-95824811D01*
X162260115Y-96032578D01*
X162260114Y-96032582D01*
X162249500Y-96151963D01*
X162249500Y-97868031D01*
X162249501Y-97868043D01*
X162260113Y-97987414D01*
X162260113Y-97987417D01*
X162260114Y-97987418D01*
X162316091Y-98183049D01*
X162410302Y-98363407D01*
X162538891Y-98521109D01*
X162696593Y-98649698D01*
X162876951Y-98743909D01*
X163072582Y-98799886D01*
X163191963Y-98810500D01*
X164908036Y-98810499D01*
X165027418Y-98799886D01*
X165223049Y-98743909D01*
X165403407Y-98649698D01*
X165446739Y-98614365D01*
X165532563Y-98568839D01*
X165629280Y-98559621D01*
X165722162Y-98588117D01*
X165728592Y-98591704D01*
X165791945Y-98628281D01*
X165791948Y-98628282D01*
X165791951Y-98628284D01*
X166010007Y-98718606D01*
X166237986Y-98779693D01*
X166471989Y-98810500D01*
X166708011Y-98810500D01*
X166942014Y-98779693D01*
X167169993Y-98718606D01*
X167388049Y-98628284D01*
X167592450Y-98510273D01*
X167708420Y-98421285D01*
X167795554Y-98378317D01*
X167892501Y-98371962D01*
X167984500Y-98403191D01*
X168011574Y-98421281D01*
X168127550Y-98510273D01*
X168146320Y-98521110D01*
X168331945Y-98628281D01*
X168331948Y-98628282D01*
X168331951Y-98628284D01*
X168550007Y-98718606D01*
X168777986Y-98779693D01*
X169011989Y-98810500D01*
X169224911Y-98810500D01*
X169320199Y-98829454D01*
X169400981Y-98883430D01*
X169454957Y-98964212D01*
X169473911Y-99059500D01*
X169454957Y-99154788D01*
X169400981Y-99235570D01*
X168609981Y-100026570D01*
X168529199Y-100080546D01*
X168433911Y-100099500D01*
X161160572Y-100099500D01*
X161065284Y-100080546D01*
X161036076Y-100066142D01*
X161002694Y-100046869D01*
X160985210Y-100036774D01*
X160985201Y-100036770D01*
X160761105Y-99943948D01*
X160761103Y-99943947D01*
X160761100Y-99943946D01*
X160761096Y-99943945D01*
X160761082Y-99943940D01*
X160526795Y-99881163D01*
X160526790Y-99881162D01*
X160286288Y-99849500D01*
X160043712Y-99849500D01*
X159803209Y-99881162D01*
X159803204Y-99881163D01*
X159568917Y-99943940D01*
X159568894Y-99943948D01*
X159344789Y-100036774D01*
X159344781Y-100036778D01*
X159327303Y-100046869D01*
X159235303Y-100078096D01*
X159138357Y-100071739D01*
X159051222Y-100028765D01*
X159045456Y-100024203D01*
X159028413Y-100010306D01*
X159028402Y-100010299D01*
X158848053Y-99916093D01*
X158848052Y-99916092D01*
X158848049Y-99916091D01*
X158652418Y-99860114D01*
X158533037Y-99849500D01*
X158533035Y-99849500D01*
X156716968Y-99849500D01*
X156716956Y-99849501D01*
X156597584Y-99860113D01*
X156401955Y-99916089D01*
X156401951Y-99916090D01*
X156401951Y-99916091D01*
X156392161Y-99921204D01*
X156298928Y-99948522D01*
X156276878Y-99949500D01*
X153138221Y-99949500D01*
X153042933Y-99930546D01*
X152962151Y-99876570D01*
X151783430Y-98697849D01*
X151729454Y-98617067D01*
X151710500Y-98521779D01*
X151710500Y-94508220D01*
X151729454Y-94412932D01*
X151783430Y-94332151D01*
X152108222Y-94007358D01*
X152121878Y-93998232D01*
X152132709Y-93985883D01*
X152161919Y-93971477D01*
X152189003Y-93953381D01*
X152205114Y-93950176D01*
X152219845Y-93942912D01*
X152252345Y-93940781D01*
X152284292Y-93934427D01*
X152300401Y-93937631D01*
G37*
%TD.AperFunction*%
%TA.AperFunction,NonConductor*%
G36*
X138414788Y-97800924D02*
G01*
X138443997Y-97815328D01*
X138482788Y-97837724D01*
X138482791Y-97837725D01*
X138482798Y-97837729D01*
X138576498Y-97876540D01*
X138706900Y-97930554D01*
X138706911Y-97930557D01*
X138706917Y-97930559D01*
X138832982Y-97964338D01*
X138941211Y-97993338D01*
X139181712Y-98025000D01*
X139424288Y-98025000D01*
X139664789Y-97993338D01*
X139716052Y-97979601D01*
X139812997Y-97973246D01*
X139904997Y-98004474D01*
X139978043Y-98068531D01*
X140021014Y-98155666D01*
X140029500Y-98220116D01*
X140029500Y-100664911D01*
X140010546Y-100760199D01*
X139956570Y-100840981D01*
X139875788Y-100894957D01*
X139780500Y-100913911D01*
X139685212Y-100894957D01*
X139604430Y-100840981D01*
X138143430Y-99379981D01*
X138089454Y-99299199D01*
X138070500Y-99203911D01*
X138070500Y-98030970D01*
X138089454Y-97935682D01*
X138143430Y-97854900D01*
X138224212Y-97800924D01*
X138319500Y-97781970D01*
X138414788Y-97800924D01*
G37*
%TD.AperFunction*%
%TA.AperFunction,NonConductor*%
G36*
X175604500Y-98403191D02*
G01*
X175631574Y-98421281D01*
X175747550Y-98510273D01*
X175766320Y-98521110D01*
X175951945Y-98628281D01*
X175951948Y-98628282D01*
X175951951Y-98628284D01*
X176170007Y-98718606D01*
X176397986Y-98779693D01*
X176631989Y-98810500D01*
X176868011Y-98810500D01*
X177102014Y-98779693D01*
X177329993Y-98718606D01*
X177345213Y-98712301D01*
X177440494Y-98693347D01*
X177535783Y-98712299D01*
X177616565Y-98766273D01*
X177670544Y-98847053D01*
X177689500Y-98942341D01*
X177689500Y-100943911D01*
X177670546Y-101039199D01*
X177616570Y-101119981D01*
X174239981Y-104496570D01*
X174159199Y-104550546D01*
X174063911Y-104569500D01*
X161976497Y-104569500D01*
X161881209Y-104550546D01*
X161800427Y-104496570D01*
X161746451Y-104415788D01*
X161727497Y-104320500D01*
X161730563Y-104281548D01*
X161765498Y-104060973D01*
X161765500Y-104060959D01*
X161765500Y-103549500D01*
X161784454Y-103454212D01*
X161838430Y-103373430D01*
X161919212Y-103319454D01*
X162014500Y-103300500D01*
X169325959Y-103300500D01*
X169325962Y-103300500D01*
X169325965Y-103300499D01*
X169325971Y-103300499D01*
X169443513Y-103281881D01*
X169574785Y-103261090D01*
X169814379Y-103183241D01*
X170038845Y-103068870D01*
X170242656Y-102920793D01*
X170420793Y-102742656D01*
X172890793Y-100272656D01*
X173038870Y-100068845D01*
X173153241Y-99844379D01*
X173231090Y-99604785D01*
X173269430Y-99362718D01*
X173270499Y-99355971D01*
X173270500Y-99355959D01*
X173270500Y-98942347D01*
X173289454Y-98847059D01*
X173343430Y-98766277D01*
X173424212Y-98712301D01*
X173519500Y-98693347D01*
X173614783Y-98712300D01*
X173630007Y-98718606D01*
X173857986Y-98779693D01*
X174091989Y-98810500D01*
X174328011Y-98810500D01*
X174562014Y-98779693D01*
X174789993Y-98718606D01*
X175008049Y-98628284D01*
X175212450Y-98510273D01*
X175328420Y-98421285D01*
X175415554Y-98378317D01*
X175512501Y-98371962D01*
X175604500Y-98403191D01*
G37*
%TD.AperFunction*%
%TA.AperFunction,NonConductor*%
G36*
X204065788Y-95035042D02*
G01*
X204146570Y-95089018D01*
X204200546Y-95169800D01*
X204219500Y-95265088D01*
X204219500Y-95913911D01*
X204200546Y-96009199D01*
X204146570Y-96089981D01*
X196539981Y-103696570D01*
X196459199Y-103750546D01*
X196363911Y-103769500D01*
X192284893Y-103769500D01*
X192189605Y-103750546D01*
X192133313Y-103718046D01*
X192113809Y-103703080D01*
X192113798Y-103703073D01*
X192052937Y-103667935D01*
X191886697Y-103571957D01*
X191886695Y-103571956D01*
X191886693Y-103571955D01*
X191886689Y-103571953D01*
X191644417Y-103471601D01*
X191534730Y-103442211D01*
X191391116Y-103403730D01*
X191391111Y-103403729D01*
X191391114Y-103403729D01*
X191131120Y-103369500D01*
X190868880Y-103369500D01*
X190608887Y-103403729D01*
X190355582Y-103471601D01*
X190113310Y-103571953D01*
X190113306Y-103571955D01*
X189886201Y-103703073D01*
X189886187Y-103703082D01*
X189678154Y-103862713D01*
X189492713Y-104048154D01*
X189333082Y-104256187D01*
X189333073Y-104256201D01*
X189201955Y-104483306D01*
X189201953Y-104483310D01*
X189101601Y-104725582D01*
X189033729Y-104978887D01*
X188999500Y-105238880D01*
X188999500Y-105501119D01*
X189033729Y-105761112D01*
X189101601Y-106014417D01*
X189201954Y-106256691D01*
X189203766Y-106260365D01*
X189204297Y-106262348D01*
X189205076Y-106264228D01*
X189204828Y-106264330D01*
X189228914Y-106354209D01*
X189216234Y-106450533D01*
X189167659Y-106534673D01*
X189090582Y-106593819D01*
X188996738Y-106618967D01*
X188980447Y-106619500D01*
X186519553Y-106619500D01*
X186424265Y-106600546D01*
X186343483Y-106546570D01*
X186289507Y-106465788D01*
X186270553Y-106370500D01*
X186289507Y-106275212D01*
X186296234Y-106260365D01*
X186298036Y-106256708D01*
X186298043Y-106256697D01*
X186398398Y-106014419D01*
X186466270Y-105761116D01*
X186500500Y-105501120D01*
X186500500Y-105238880D01*
X186466270Y-104978884D01*
X186398398Y-104725581D01*
X186298043Y-104483303D01*
X186166924Y-104256197D01*
X186166920Y-104256192D01*
X186166917Y-104256187D01*
X186007286Y-104048154D01*
X186007285Y-104048153D01*
X186007282Y-104048149D01*
X185821851Y-103862718D01*
X185821846Y-103862714D01*
X185821845Y-103862713D01*
X185613812Y-103703082D01*
X185613798Y-103703073D01*
X185552937Y-103667935D01*
X185386697Y-103571957D01*
X185386695Y-103571956D01*
X185386693Y-103571955D01*
X185386689Y-103571953D01*
X185144417Y-103471601D01*
X185034730Y-103442211D01*
X184891116Y-103403730D01*
X184891111Y-103403729D01*
X184891114Y-103403729D01*
X184631120Y-103369500D01*
X184368880Y-103369500D01*
X184108887Y-103403729D01*
X183855582Y-103471601D01*
X183613310Y-103571953D01*
X183613306Y-103571955D01*
X183386201Y-103703073D01*
X183386187Y-103703082D01*
X183178154Y-103862713D01*
X182992713Y-104048154D01*
X182833082Y-104256187D01*
X182833073Y-104256201D01*
X182701955Y-104483306D01*
X182701953Y-104483310D01*
X182601601Y-104725582D01*
X182533729Y-104978887D01*
X182499500Y-105238880D01*
X182499500Y-105501119D01*
X182533729Y-105761112D01*
X182601601Y-106014417D01*
X182701954Y-106256691D01*
X182703766Y-106260365D01*
X182704297Y-106262348D01*
X182705076Y-106264228D01*
X182704828Y-106264330D01*
X182728914Y-106354209D01*
X182716234Y-106450533D01*
X182667659Y-106534673D01*
X182590582Y-106593819D01*
X182496738Y-106618967D01*
X182480447Y-106619500D01*
X177245089Y-106619500D01*
X177149801Y-106600546D01*
X177069019Y-106546570D01*
X177015043Y-106465788D01*
X176996089Y-106370500D01*
X177015043Y-106275212D01*
X177069019Y-106194430D01*
X177899560Y-105363889D01*
X180510793Y-102752656D01*
X180658870Y-102548845D01*
X180773241Y-102324379D01*
X180851090Y-102084785D01*
X180890500Y-101835962D01*
X180890500Y-101584038D01*
X180890500Y-98942347D01*
X180909454Y-98847059D01*
X180963430Y-98766277D01*
X181044212Y-98712301D01*
X181139500Y-98693347D01*
X181234783Y-98712300D01*
X181250007Y-98718606D01*
X181477986Y-98779693D01*
X181711989Y-98810500D01*
X181948011Y-98810500D01*
X182182014Y-98779693D01*
X182409993Y-98718606D01*
X182628049Y-98628284D01*
X182832450Y-98510273D01*
X182948420Y-98421285D01*
X182953031Y-98419012D01*
X182956576Y-98415287D01*
X182996443Y-98397603D01*
X183035554Y-98378317D01*
X183040684Y-98377980D01*
X183045387Y-98375895D01*
X183088984Y-98374814D01*
X183132501Y-98371962D01*
X183137371Y-98373615D01*
X183142512Y-98373488D01*
X183161463Y-98381793D01*
X183224500Y-98403191D01*
X183233165Y-98408432D01*
X183242659Y-98414440D01*
X183367550Y-98510273D01*
X183571951Y-98628284D01*
X183596773Y-98638565D01*
X183614866Y-98650017D01*
X183634839Y-98669024D01*
X183657768Y-98684344D01*
X183669695Y-98702194D01*
X183685246Y-98716993D01*
X183696426Y-98742198D01*
X183711745Y-98765125D01*
X183715933Y-98786178D01*
X183724638Y-98805804D01*
X183725321Y-98833369D01*
X183730701Y-98860413D01*
X183726513Y-98881468D01*
X183727045Y-98902929D01*
X183717128Y-98928655D01*
X183711749Y-98955701D01*
X183699822Y-98973551D01*
X183692101Y-98993582D01*
X183673093Y-99013555D01*
X183657774Y-99036484D01*
X183633680Y-99054971D01*
X183625125Y-99063962D01*
X183617633Y-99067284D01*
X183606200Y-99076058D01*
X183386201Y-99203073D01*
X183386187Y-99203082D01*
X183178154Y-99362713D01*
X182992713Y-99548154D01*
X182833082Y-99756187D01*
X182833073Y-99756201D01*
X182701955Y-99983306D01*
X182701953Y-99983310D01*
X182601601Y-100225582D01*
X182533729Y-100478887D01*
X182499500Y-100738880D01*
X182499500Y-101001119D01*
X182533729Y-101261112D01*
X182601601Y-101514417D01*
X182701953Y-101756689D01*
X182701955Y-101756693D01*
X182701957Y-101756697D01*
X182797935Y-101922937D01*
X182833073Y-101983798D01*
X182833082Y-101983812D01*
X182992713Y-102191845D01*
X182992718Y-102191851D01*
X183178149Y-102377282D01*
X183178153Y-102377285D01*
X183178154Y-102377286D01*
X183386187Y-102536917D01*
X183386190Y-102536919D01*
X183386197Y-102536924D01*
X183613303Y-102668043D01*
X183855581Y-102768398D01*
X184108884Y-102836270D01*
X184368880Y-102870500D01*
X184631120Y-102870500D01*
X184891116Y-102836270D01*
X185144419Y-102768398D01*
X185386697Y-102668043D01*
X185613803Y-102536924D01*
X185821851Y-102377282D01*
X186007282Y-102191851D01*
X186166924Y-101983803D01*
X186298043Y-101756697D01*
X186398398Y-101514419D01*
X186466270Y-101261116D01*
X186500500Y-101001120D01*
X186500500Y-100738880D01*
X186466270Y-100478884D01*
X186398398Y-100225581D01*
X186298043Y-99983303D01*
X186166924Y-99756197D01*
X186166920Y-99756192D01*
X186166917Y-99756187D01*
X186007286Y-99548154D01*
X186007285Y-99548153D01*
X186007282Y-99548149D01*
X185821851Y-99362718D01*
X185821846Y-99362714D01*
X185821845Y-99362713D01*
X185613812Y-99203082D01*
X185613798Y-99203073D01*
X185442263Y-99104038D01*
X185386697Y-99071957D01*
X185386695Y-99071956D01*
X185386693Y-99071955D01*
X185386694Y-99071955D01*
X185278425Y-99027109D01*
X185258113Y-99013537D01*
X185235541Y-99004208D01*
X185218117Y-98986812D01*
X185197644Y-98973132D01*
X185184073Y-98952821D01*
X185166787Y-98935563D01*
X185157346Y-98912822D01*
X185143668Y-98892351D01*
X185138902Y-98868393D01*
X185129537Y-98845833D01*
X185129517Y-98821211D01*
X185124714Y-98797063D01*
X185129479Y-98773105D01*
X185129460Y-98748678D01*
X185138864Y-98725923D01*
X185143668Y-98701774D01*
X185157239Y-98681462D01*
X185166569Y-98658890D01*
X185181966Y-98644457D01*
X185197645Y-98620993D01*
X185235214Y-98590136D01*
X185242061Y-98585553D01*
X185372450Y-98510273D01*
X185494812Y-98416381D01*
X185501500Y-98411905D01*
X185539072Y-98396307D01*
X185575554Y-98378317D01*
X185583694Y-98377783D01*
X185591230Y-98374655D01*
X185631910Y-98374622D01*
X185672501Y-98371962D01*
X185680226Y-98374584D01*
X185688385Y-98374578D01*
X185725974Y-98390113D01*
X185764500Y-98403191D01*
X185775661Y-98410648D01*
X185778173Y-98411687D01*
X185780111Y-98413622D01*
X185791574Y-98421281D01*
X185907550Y-98510273D01*
X185926320Y-98521110D01*
X186111945Y-98628281D01*
X186111948Y-98628282D01*
X186111951Y-98628284D01*
X186330007Y-98718606D01*
X186557986Y-98779693D01*
X186791989Y-98810500D01*
X187028011Y-98810500D01*
X187262014Y-98779693D01*
X187489993Y-98718606D01*
X187708049Y-98628284D01*
X187912450Y-98510273D01*
X188028420Y-98421285D01*
X188115554Y-98378317D01*
X188212501Y-98371962D01*
X188304500Y-98403191D01*
X188331574Y-98421281D01*
X188447550Y-98510273D01*
X188466320Y-98521110D01*
X188651945Y-98628281D01*
X188651948Y-98628282D01*
X188651951Y-98628284D01*
X188870007Y-98718606D01*
X189097986Y-98779693D01*
X189331989Y-98810500D01*
X189568008Y-98810500D01*
X189568011Y-98810500D01*
X189648341Y-98799924D01*
X189745284Y-98806278D01*
X189832420Y-98849248D01*
X189896479Y-98922293D01*
X189927710Y-99014291D01*
X189921356Y-99111238D01*
X189878386Y-99198374D01*
X189832423Y-99244338D01*
X189678151Y-99362716D01*
X189492713Y-99548154D01*
X189333082Y-99756187D01*
X189333073Y-99756201D01*
X189201955Y-99983306D01*
X189201953Y-99983310D01*
X189101601Y-100225582D01*
X189033729Y-100478887D01*
X188999500Y-100738880D01*
X188999500Y-101001119D01*
X189033729Y-101261112D01*
X189101601Y-101514417D01*
X189201953Y-101756689D01*
X189201955Y-101756693D01*
X189201957Y-101756697D01*
X189297935Y-101922937D01*
X189333073Y-101983798D01*
X189333082Y-101983812D01*
X189492713Y-102191845D01*
X189492718Y-102191851D01*
X189678149Y-102377282D01*
X189678153Y-102377285D01*
X189678154Y-102377286D01*
X189886187Y-102536917D01*
X189886190Y-102536919D01*
X189886197Y-102536924D01*
X190113303Y-102668043D01*
X190355581Y-102768398D01*
X190608884Y-102836270D01*
X190868880Y-102870500D01*
X191131120Y-102870500D01*
X191391116Y-102836270D01*
X191644419Y-102768398D01*
X191886697Y-102668043D01*
X192113803Y-102536924D01*
X192121366Y-102531120D01*
X192133313Y-102521954D01*
X192220449Y-102478984D01*
X192284893Y-102470500D01*
X195795959Y-102470500D01*
X195795962Y-102470500D01*
X195795965Y-102470499D01*
X195795971Y-102470499D01*
X195913513Y-102451881D01*
X196044785Y-102431090D01*
X196284379Y-102353241D01*
X196508845Y-102238870D01*
X196712656Y-102090793D01*
X196890793Y-101912656D01*
X198290793Y-100512656D01*
X198360540Y-100416657D01*
X198438870Y-100308845D01*
X198553241Y-100084379D01*
X198631090Y-99844785D01*
X198670500Y-99595962D01*
X198670500Y-98942347D01*
X198689454Y-98847059D01*
X198743430Y-98766277D01*
X198824212Y-98712301D01*
X198919500Y-98693347D01*
X199014783Y-98712300D01*
X199030007Y-98718606D01*
X199257986Y-98779693D01*
X199491989Y-98810500D01*
X199728011Y-98810500D01*
X199962014Y-98779693D01*
X200189993Y-98718606D01*
X200408049Y-98628284D01*
X200612450Y-98510273D01*
X200799699Y-98366592D01*
X200966592Y-98199699D01*
X201110273Y-98012450D01*
X201228284Y-97808049D01*
X201231236Y-97800924D01*
X201278244Y-97687435D01*
X201317436Y-97592817D01*
X201371411Y-97512037D01*
X203794432Y-95089016D01*
X203875212Y-95035042D01*
X203970500Y-95016088D01*
X204065788Y-95035042D01*
G37*
%TD.AperFunction*%
%TA.AperFunction,NonConductor*%
G36*
X206785788Y-98195042D02*
G01*
X206866570Y-98249018D01*
X206920546Y-98329800D01*
X206939500Y-98425088D01*
X206939500Y-111190500D01*
X206920546Y-111285788D01*
X206866570Y-111366570D01*
X206785788Y-111420546D01*
X206690500Y-111439500D01*
X205000090Y-111439500D01*
X204904802Y-111420546D01*
X204824020Y-111366570D01*
X204770044Y-111285788D01*
X204751090Y-111190500D01*
X204770044Y-111095212D01*
X204824020Y-111014430D01*
X204848509Y-110992955D01*
X205022738Y-110859265D01*
X205194265Y-110687738D01*
X205341936Y-110495289D01*
X205463224Y-110285212D01*
X205556054Y-110061100D01*
X205618838Y-109826789D01*
X205650500Y-109586288D01*
X205650500Y-109343712D01*
X205618838Y-109103211D01*
X205563182Y-108895500D01*
X205556059Y-108868917D01*
X205556057Y-108868911D01*
X205556054Y-108868900D01*
X205505687Y-108747303D01*
X205463230Y-108644800D01*
X205463226Y-108644792D01*
X205463224Y-108644788D01*
X205453133Y-108627310D01*
X205421904Y-108535316D01*
X205428256Y-108438369D01*
X205471225Y-108351233D01*
X205475781Y-108345474D01*
X205489698Y-108328407D01*
X205583909Y-108148049D01*
X205639886Y-107952418D01*
X205650500Y-107833037D01*
X205650499Y-106016964D01*
X205639886Y-105897582D01*
X205583909Y-105701951D01*
X205489698Y-105521593D01*
X205361109Y-105363891D01*
X205203407Y-105235302D01*
X205203402Y-105235299D01*
X205023053Y-105141093D01*
X205023052Y-105141092D01*
X205023049Y-105141091D01*
X204827418Y-105085114D01*
X204708037Y-105074500D01*
X204708035Y-105074500D01*
X202891968Y-105074500D01*
X202891956Y-105074501D01*
X202772585Y-105085113D01*
X202576954Y-105141090D01*
X202576946Y-105141093D01*
X202396597Y-105235299D01*
X202396592Y-105235302D01*
X202355905Y-105268479D01*
X202270077Y-105314006D01*
X202198551Y-105324500D01*
X200040088Y-105324500D01*
X199944800Y-105305546D01*
X199864018Y-105251570D01*
X199810042Y-105170788D01*
X199791088Y-105075500D01*
X199810042Y-104980212D01*
X199864018Y-104899430D01*
X203006759Y-101756689D01*
X206514432Y-98249016D01*
X206595212Y-98195042D01*
X206690500Y-98176088D01*
X206785788Y-98195042D01*
G37*
%TD.AperFunction*%
%TA.AperFunction,NonConductor*%
G36*
X141944788Y-107615042D02*
G01*
X142025570Y-107669018D01*
X145370982Y-111014430D01*
X145424958Y-111095212D01*
X145443912Y-111190500D01*
X145424958Y-111285788D01*
X145370982Y-111366570D01*
X145290200Y-111420546D01*
X145194912Y-111439500D01*
X139837901Y-111439500D01*
X139742613Y-111420546D01*
X139661831Y-111366570D01*
X139607855Y-111285788D01*
X139588901Y-111190500D01*
X139607855Y-111095212D01*
X139661831Y-111014430D01*
X139724855Y-110968640D01*
X139753845Y-110953870D01*
X139957656Y-110805793D01*
X140135793Y-110627656D01*
X141220793Y-109542656D01*
X141368871Y-109338844D01*
X141483242Y-109114378D01*
X141486873Y-109103204D01*
X141554358Y-108895504D01*
X141554360Y-108895496D01*
X141561090Y-108874785D01*
X141582298Y-108740882D01*
X141600499Y-108625971D01*
X141600500Y-108625959D01*
X141600500Y-107845088D01*
X141619454Y-107749800D01*
X141673430Y-107669018D01*
X141754212Y-107615042D01*
X141849500Y-107596088D01*
X141944788Y-107615042D01*
G37*
%TD.AperFunction*%
%TA.AperFunction,NonConductor*%
G36*
X133664788Y-102455043D02*
G01*
X133745570Y-102509019D01*
X135336570Y-104100019D01*
X135390546Y-104180801D01*
X135409500Y-104276089D01*
X135409500Y-105443551D01*
X135390546Y-105538839D01*
X135353479Y-105600905D01*
X135320302Y-105641592D01*
X135320299Y-105641597D01*
X135226093Y-105821946D01*
X135226090Y-105821954D01*
X135170115Y-106017578D01*
X135170114Y-106017582D01*
X135159500Y-106136963D01*
X135159500Y-107953031D01*
X135159501Y-107953043D01*
X135170113Y-108072414D01*
X135226090Y-108268045D01*
X135226093Y-108268053D01*
X135320299Y-108448402D01*
X135320306Y-108448413D01*
X135334203Y-108465456D01*
X135379731Y-108551283D01*
X135388948Y-108648000D01*
X135360451Y-108740882D01*
X135356869Y-108747303D01*
X135346778Y-108764781D01*
X135346774Y-108764789D01*
X135253948Y-108988894D01*
X135253940Y-108988917D01*
X135191163Y-109223204D01*
X135191162Y-109223209D01*
X135159500Y-109463712D01*
X135159500Y-109706287D01*
X135191162Y-109946790D01*
X135191163Y-109946795D01*
X135253940Y-110181082D01*
X135253948Y-110181105D01*
X135346770Y-110405201D01*
X135346778Y-110405217D01*
X135468058Y-110615279D01*
X135468064Y-110615289D01*
X135615729Y-110807731D01*
X135615733Y-110807735D01*
X135615735Y-110807738D01*
X135787262Y-110979265D01*
X135805105Y-110992956D01*
X135869162Y-111065999D01*
X135900392Y-111157998D01*
X135894038Y-111254945D01*
X135851068Y-111342081D01*
X135778023Y-111406140D01*
X135686024Y-111437370D01*
X135653522Y-111439500D01*
X133569500Y-111439500D01*
X133474212Y-111420546D01*
X133393430Y-111366570D01*
X133339454Y-111285788D01*
X133320500Y-111190500D01*
X133320500Y-102685089D01*
X133339454Y-102589801D01*
X133393430Y-102509019D01*
X133474212Y-102455043D01*
X133569500Y-102436089D01*
X133664788Y-102455043D01*
G37*
%TD.AperFunction*%
M02*
