M48
; DRILL file {KiCad 9.0.3} date 2025-09-16T13:15:05-0300
; FORMAT={-:-/ absolute / metric / decimal}
; #@! TF.CreationDate,2025-09-16T13:15:05-03:00
; #@! TF.GenerationSoftware,Kicad,Pcbnew,9.0.3
; #@! TF.FileFunction,Plated,1,2,PTH
FMAT,2
METRIC
; #@! TA.AperFunction,Plated,PTH,ComponentDrill
T1C1.000
; #@! TA.AperFunction,Plated,PTH,ComponentDrill
T2C1.100
%
G90
G05
T1
X137.01Y-107.045
X137.01Y-109.585
X139.2Y-69.475
X139.2Y-72.015
X139.2Y-74.555
X139.303Y-83.474
X139.303Y-86.014
X139.303Y-88.554
X139.303Y-91.094
X139.303Y-93.635
X139.303Y-96.174
X154.303Y-83.445
X154.303Y-85.986
X154.303Y-88.525
X154.303Y-91.066
X154.303Y-93.605
X154.303Y-96.145
X157.625Y-101.7
X160.165Y-101.7
X164.05Y-81.77
X164.05Y-97.01
X166.59Y-81.77
X166.59Y-97.01
X167.56Y-69.0
X169.13Y-97.01
X170.14Y-69.0
X171.67Y-97.01
X172.68Y-69.0
X174.21Y-81.77
X174.21Y-97.01
X175.22Y-69.0
X176.75Y-81.77
X176.75Y-97.01
X177.76Y-69.0
X179.29Y-81.77
X179.29Y-97.01
X180.3Y-69.0
X181.83Y-81.77
X181.83Y-97.01
X182.84Y-69.0
X184.37Y-81.77
X184.37Y-97.01
X185.38Y-69.0
X186.91Y-81.77
X186.91Y-97.01
X187.92Y-69.0
X189.45Y-81.77
X189.45Y-97.01
X190.46Y-69.0
X191.99Y-81.77
X191.99Y-97.01
X192.98Y-69.0
X194.53Y-81.77
X194.53Y-97.01
X197.07Y-81.77
X197.07Y-97.01
X199.61Y-81.77
X199.61Y-97.01
X200.6Y-69.46
X200.6Y-72.0
X200.6Y-74.54
X203.8Y-106.925
X203.8Y-109.465
T2
X184.5Y-100.87
X184.5Y-105.37
X191.0Y-100.87
X191.0Y-105.37
M30
